<svg width="114" height="40" viewBox="0 0 114 40" fill="none" xmlns="http://www.w3.org/2000/svg">
<path d="M33.6726 19.5822C33.6726 19.5822 33.1579 22.4532 32.544 25.8766C31.6516 30.8536 30.5466 37.0016 30.4853 37.2094C30.4191 37.4361 31.0566 38.5221 31.5241 39.2729C31.7791 39.6884 31.9821 39.9954 31.9821 39.9954H27.2696L27.1657 38.3143L26.6085 29.352L26.226 23.1898C26.226 23.1898 34.362 14.3408 33.6632 19.5822H33.6726Z" fill="url(#paint0_linear_0_630)"/>
<g style="mix-blend-mode:multiply" opacity="0.2">
<path d="M31.9916 39.9952H27.2791L27.1752 38.3142L30.7356 39.4664L31.5336 39.268C31.7886 39.6836 31.9916 39.9905 31.9916 39.9905V39.9952Z" fill="#47128D"/>
</g>
<g style="mix-blend-mode:multiply" opacity="0.2">
<path d="M33.6726 19.5822C33.6726 19.5822 33.1579 22.4532 32.5441 25.8766C30.7875 27.5388 28.7098 28.639 26.618 29.352L26.2355 23.1898C26.2355 23.1898 34.3715 14.3408 33.6726 19.5822Z" fill="#47128D"/>
</g>
<path d="M25.6027 39.9954H19.025C19.025 39.9954 18.4725 39.1643 17.8303 38.1585C16.9331 36.7372 15.866 34.957 15.9226 34.6029C16.0218 33.9937 17.5328 32.2513 17.5328 32.2513L16.8293 30.6033L15.7196 28.0062L14.8177 25.8955L16.9331 26.0372L22.3493 26.396L22.8026 30.287L22.897 31.0755L19.4122 34.7115L24.8047 39.3201L25.598 39.9954H25.6027Z" fill="url(#paint1_linear_0_630)"/>
<g style="mix-blend-mode:multiply" opacity="0.2">
<path d="M22.3587 26.396L22.812 30.287C20.3141 30.6883 18.1137 30.6694 16.8387 30.6033L14.8271 25.8955L22.3587 26.396Z" fill="#47128D"/>
</g>
<path d="M0.90198 23.5721C1.77083 24.0868 3.28186 24.2143 5.49176 23.6382C9.12297 22.6938 10.6198 23.6996 11.2337 24.6534C11.6398 25.2862 11.6634 25.8953 11.6634 25.8953L13.0044 23.2746C12.9336 23.1093 11.6728 21.4519 8.97187 21.3244C5.96868 21.1828 3.31492 22.8024 2.39413 21.9194C1.86527 21.4094 2.96549 20.4414 4.16015 19.2515C5.44454 17.9765 6.8328 16.4372 6.43616 14.9308C6.08673 13.604 4.84012 13.3112 4.43403 14.0006C4.28293 14.2509 4.24515 14.6334 4.40098 15.1433C4.79762 16.423 2.88994 17.8963 1.28918 19.497C-0.250187 21.0364 -0.44851 22.7741 0.897258 23.5768L0.90198 23.5721Z" fill="url(#paint2_linear_0_630)"/>
<g style="mix-blend-mode:multiply" opacity="0.2">
<path d="M0.901978 23.572C1.77082 24.0867 3.28186 24.2142 5.49175 23.6381C9.12297 22.6937 10.6198 23.6995 11.2337 24.6533L11.6917 23.6523C11.6917 23.6523 10.4876 21.806 7.04057 22.6229C4.81651 23.1517 2.53106 23.9356 0.901978 23.5673V23.572Z" fill="#47128D"/>
</g>
<path style="mix-blend-mode:soft-light" d="M4.16486 19.2515C5.44924 17.9765 6.8375 16.4372 6.44086 14.9308C6.09143 13.604 4.84482 13.3112 4.43873 14.0006C6.54946 15.3369 5.20369 17.8301 4.16486 19.2515Z" fill="url(#paint3_linear_0_630)"/>
<path d="M18.1656 1.47803C18.1656 1.47803 17.7643 2.29021 17.8965 2.83324C18.2081 2.40826 18.6331 1.96439 18.6331 1.96439" fill="url(#paint4_linear_0_630)"/>
<path d="M18.7889 7.18219L18.0759 6.44556C18.0759 6.44556 17.802 7.08303 18.2506 7.80077" fill="url(#paint5_linear_0_630)"/>
<path d="M20.2622 5.75145C20.2622 5.75145 19.5067 5.57674 19.0392 5.98283C18.9731 5.40202 19.5492 4.53318 20.5974 4.78344" fill="url(#paint6_linear_0_630)"/>
<path d="M27.3121 3.44712C27.3121 3.44712 29.3189 3.17796 31.0094 3.95237C30.2539 5.01482 28.0251 5.59562 28.0251 5.59562C28.0251 5.59562 27.0902 4.47651 27.3121 3.45184V3.44712Z" fill="url(#paint7_linear_0_630)"/>
<path d="M26.3063 27.8125C26.2072 27.855 26.108 27.8975 26.0088 27.94C25.5225 28.1431 25.0314 28.3131 24.5309 28.4594C21.2018 29.4463 17.7312 29.2858 15.1246 28.8844C14.8744 28.8467 14.6288 28.8042 14.3927 28.7664C12.2773 28.3886 10.8937 27.8975 10.8937 27.8975C10.8937 27.8975 11.0212 26.5518 11.8617 24.5969C12.164 23.8838 12.5653 23.0905 13.0847 22.25C14.6336 19.7521 17.2684 16.8481 21.726 14.4776C22.0282 14.3171 22.3446 14.1565 22.6657 14.0007C22.7979 14.506 23.1001 15.4456 23.6714 16.2673C23.3362 15.304 23.1993 13.9063 23.1993 13.9063C22.8829 12.1166 22.9868 8.85374 22.9868 8.85374L21.0885 9.37788C21.0885 9.37788 20.8194 8.66958 20.1819 8.57986C19.5492 8.49014 18.4536 8.74513 18.1373 8.65069C17.9531 8.59403 17.5895 7.98489 17.9862 7.47964C18.3781 6.97438 19.7569 7.11132 20.078 5.36891C20.1866 4.7881 20.0875 4.24979 19.8844 3.77759C19.4736 2.82375 18.6142 2.11073 18.0145 1.74242C17.9295 1.34577 18.0051 0.949121 18.1892 0.594971C18.6 0.849959 19.1289 0.609137 19.1761 0.576083C19.1478 0.590249 18.8881 0.571361 18.7653 0.528863C18.8314 0.339983 18.5386 0.316373 18.4961 0.481643C18.4206 0.476921 18.3592 0.420257 18.312 0.363593C18.4489 0.146382 18.6142 0 18.7559 0C19.1242 0 21.929 0.916067 21.929 0.916067C21.929 0.916067 22.0896 0.547751 22.5618 0.594971C23.034 0.642191 27.2271 3.21095 29.012 4.22146C29.8525 4.69838 31.6422 5.95916 33.0588 8.11238C33.9984 9.5337 34.7729 11.3375 35.009 13.5663C35.3914 17.1644 34.3951 24.2474 26.3063 27.8173V27.8125Z" fill="url(#paint8_linear_0_630)"/>
<path style="mix-blend-mode:soft-light" d="M26.3063 27.8125C26.2071 27.855 26.108 27.8975 26.0088 27.94C25.9049 27.9022 25.8058 27.855 25.7066 27.803C33.4176 23.5816 33.6537 13.7693 33.0587 8.1123C33.9984 9.53362 34.7728 11.3374 35.0089 13.5662C35.3914 17.1644 34.3951 24.2474 26.3063 27.8172V27.8125Z" fill="url(#paint9_linear_0_630)"/>
<g style="mix-blend-mode:multiply" opacity="0.2">
<path d="M24.5309 28.4594C20.8808 29.5408 17.0607 29.2433 14.3975 28.7664L14.8272 27.6284C14.8272 27.6284 17.5659 27.822 20.0544 27.0381C18.8503 25.0738 17.6604 20.6209 19.8797 18.7227C21.5938 17.2541 23.6762 24.9227 24.5356 28.4641L24.5309 28.4594Z" fill="#47128D"/>
</g>
<path d="M26.3063 3.61695C26.3063 3.61695 28.0393 2.70088 29.947 2.85671C29.7156 4.08915 27.9118 5.36409 27.9118 5.36409C27.9118 5.36409 26.7077 4.84467 26.3111 3.61695H26.3063Z" fill="url(#paint10_linear_0_630)"/>
<path d="M23.8462 2.15322C23.8462 2.15322 22.9112 2.55932 22.4674 2.30905C22.0235 2.05878 22.1132 1.39771 22.1132 1.39771L23.8509 2.15322H23.8462Z" fill="#1F122F"/>
<path d="M27.2791 11.1864C27.2366 11.1298 26.6794 8.26353 24.7197 7.02637C24.8756 7.48912 24.8142 7.80077 24.8142 7.80077L24.0964 7.41357L24.2759 8.24464L23.2418 8.74045C23.2418 8.74045 24.7197 8.88211 25.1447 7.89521C26.5094 9.10404 27.2838 11.1817 27.2838 11.1817L27.2791 11.1864Z" fill="#1F122F"/>
<g style="mix-blend-mode:multiply" opacity="0.2">
<path d="M28.9931 3.51318C28.9931 3.51318 28.5115 4.52369 27.7701 4.73618C27.4915 4.33481 27.3499 3.81539 27.3499 3.81539C27.3499 3.81539 27.959 3.53679 28.9931 3.51318Z" fill="#47128D"/>
</g>
<g style="mix-blend-mode:multiply" opacity="0.2">
<path d="M24.1814 2.38452C24.1814 2.38452 22.9396 2.96533 21.9857 2.61118C22.2832 2.96533 23.7754 3.10226 24.1814 2.38452Z" fill="#47128D"/>
</g>
<g style="mix-blend-mode:multiply" opacity="0.2">
<path d="M24.3467 2.51685C24.3467 2.51685 23.3031 3.34319 22.2784 3.20153C22.6656 3.48013 24.1531 3.3007 24.3467 2.51685Z" fill="#47128D"/>
</g>
<g style="mix-blend-mode:multiply" opacity="0.2">
<path d="M24.4837 2.68213C24.4837 2.68213 23.7517 3.73041 22.7224 3.84374C23.1851 4.01373 24.5545 3.47542 24.4837 2.68213Z" fill="#47128D"/>
</g>
<path d="M18.1089 23.4635C17.8823 24.2285 17.4668 25.1115 16.9426 26.037C16.579 26.6792 16.1635 27.345 15.7243 28.0061C15.5307 28.3036 15.3277 28.5963 15.1246 28.8891C13.08 31.8167 10.7993 34.428 10.7993 34.428L10.1429 36.5009L10.8749 39.1216L11.1204 39.9999H4.64655L5.50123 38.2339L6.58256 35.9957L8.33914 33.9936C8.33914 33.9936 8.83023 30.8157 9.43465 28.1808C9.69436 27.0428 9.97768 26.0087 10.2516 25.3759C11.0023 23.6335 12.5889 22.5569 13.0895 22.25C13.1886 22.1886 13.2453 22.1555 13.2453 22.1555L14.3408 22.4483L18.1137 23.4588L18.1089 23.4635Z" fill="url(#paint11_linear_0_630)"/>
<path d="M36.6475 39.9953H29.4464L28.8609 38.201L28.1715 36.0808L21.2679 26.396C21.2679 26.396 18.1845 22.3445 19.875 17.75L26.8446 23.5486L32.138 35.533L35.5284 38.8904L36.6427 39.9953H36.6475Z" fill="url(#paint12_linear_0_630)"/>
<path style="mix-blend-mode:soft-light" d="M24.4883 18.5339C24.4883 18.5339 22.6939 18.3734 21.2962 15.5874C19.4452 16.3948 16.0359 19.5633 14.336 22.4484C14.1944 22.694 14.0621 22.9348 13.9441 23.1709C13.165 23.4825 12.4708 23.9878 11.857 24.5922C10.8229 25.6169 10.0201 26.9438 9.42987 28.1715C9.68958 27.0335 9.9729 25.9994 10.2468 25.3666C10.9976 23.6242 12.5842 22.5476 13.0847 22.2407C14.6335 19.7427 17.2684 16.8387 21.7259 14.4683C22.3965 16.7726 24.4883 18.5245 24.4883 18.5245V18.5339Z" fill="url(#paint13_linear_0_630)"/>
<g style="mix-blend-mode:multiply" opacity="0.2">
<path d="M10.8749 39.117L11.1204 39.9953H4.64655L5.50123 38.2292L10.8796 39.117H10.8749Z" fill="#47128D"/>
</g>
<g style="mix-blend-mode:multiply" opacity="0.2">
<path d="M24.8141 39.3201L25.6074 39.9953H19.0297C19.0297 39.9953 18.4772 39.1642 17.835 38.1584L24.8141 39.3201Z" fill="#47128D"/>
</g>
<g style="mix-blend-mode:multiply" opacity="0.2">
<path d="M36.6474 39.9953H29.4464L28.8656 38.2009L35.5331 38.8903L36.6474 39.9953Z" fill="#47128D"/>
</g>
<path d="M55.7167 4.81873C55.7167 4.89342 55.7167 4.96811 55.7167 5.0428V17.6493H52.6361V11.1033H52.5819C51.9937 13.2874 51.4048 15.4777 50.8152 17.6742C50.0477 17.6742 49.2906 17.6742 48.5209 17.6742C48.4584 17.6742 48.3645 17.5518 48.3436 17.4667C47.9265 15.9314 47.5093 14.3939 47.1047 12.8586C46.9524 12.2942 46.8002 11.7299 46.6 11.1718V17.6638H43.5026V4.81873H47.3571C48.0954 7.57407 48.8359 10.3273 49.5909 13.1449C49.6326 13.0204 49.6556 12.9603 49.6723 12.9001C50.0352 11.5556 50.3981 10.2125 50.761 8.87081C51.1239 7.52911 51.491 6.17842 51.8623 4.81873H55.7167Z" fill="white"/>
<path d="M69.6328 4.81873C70.0499 5.32706 70.4671 5.83123 70.8842 6.3437C70.9567 6.43066 70.9997 6.53809 71.0073 6.65077C71.0226 8.31061 71.0282 9.97045 71.024 11.6303C71.0138 11.7502 70.9664 11.8641 70.8884 11.956C70.5255 12.4104 70.1563 12.8607 69.7767 13.3005C69.7242 13.3509 69.6886 13.4163 69.6748 13.4876C69.661 13.5589 69.6696 13.6327 69.6995 13.6989C70.1167 14.9292 70.5338 16.1637 70.9385 17.3983C70.9635 17.4771 70.9843 17.5559 71.0135 17.6535H67.91L66.5313 13.5038H64.6541V17.6535H61.5255V16.9376C61.5255 13.535 61.5297 10.1337 61.538 6.73377C61.5417 6.58973 61.5906 6.45045 61.6778 6.33541C62.0261 5.8914 62.3974 5.46399 62.7561 5.02621C62.8035 4.96021 62.846 4.89086 62.8833 4.81873H69.6328ZM67.8933 7.22757H64.6458V11.0784H67.8933V7.22757Z" fill="white"/>
<path d="M110.53 4.81873C110.947 5.32706 111.364 5.83123 111.781 6.34163C111.851 6.4215 111.894 6.52077 111.904 6.62587C111.904 7.406 111.904 8.18613 111.904 8.96626C111.901 9.00334 111.895 9.0401 111.886 9.07621H108.813V7.22757H105.537V10.041H110.501C110.488 10.0892 110.472 10.1363 110.453 10.1821C110.036 10.8917 109.618 11.6033 109.201 12.3046C109.167 12.3452 109.124 12.3781 109.076 12.401C109.028 12.4239 108.975 12.4363 108.922 12.4374C107.879 12.4478 106.853 12.4374 105.818 12.4374H105.537V15.2571H108.799V13.3897H111.892C111.892 13.4707 111.904 13.5433 111.904 13.618C111.904 14.3483 111.904 15.0703 111.904 15.8069C111.899 15.9279 111.857 16.0445 111.783 16.1409C111.411 16.6084 111.028 17.0684 110.634 17.5207C110.56 17.6017 110.456 17.6502 110.346 17.6555C108.227 17.6638 106.108 17.6638 103.989 17.6555C103.88 17.649 103.777 17.6016 103.701 17.5227C103.313 17.0787 102.934 16.6264 102.567 16.1637C102.483 16.0566 102.434 15.926 102.429 15.7903C102.421 12.7611 102.421 9.73185 102.429 6.70264C102.434 6.56715 102.481 6.4366 102.565 6.32918C102.913 5.88517 103.28 5.45568 103.639 5.0179C103.688 4.95172 103.734 4.88241 103.774 4.81042L110.53 4.81873Z" fill="white"/>
<path d="M79.394 4.81873C79.6172 5.51379 79.8341 6.20885 80.0636 6.89353C81.2357 10.4055 82.4093 13.9188 83.5843 17.4335C83.6072 17.502 83.6218 17.5725 83.6469 17.6597C82.6436 17.6597 81.6592 17.6597 80.6747 17.6597C80.61 17.6597 80.5162 17.5414 80.4891 17.4522C79.9864 15.9687 79.4921 14.4832 78.9957 12.9976C78.5243 11.5826 78.0536 10.1676 77.5836 8.75255C77.5565 8.66748 77.5211 8.5845 77.4689 8.43926C76.6993 10.7402 75.9484 12.9893 75.1871 15.2695H77.4814V17.6452H71.2868C71.3931 17.3215 71.4953 16.9999 71.6038 16.6804C72.8969 12.8074 74.1908 8.93444 75.4854 5.06148C75.5104 4.98264 75.5229 4.90172 75.5417 4.82081L79.394 4.81873Z" fill="white"/>
<path d="M91.9585 4.81873C92.3757 5.32705 92.7928 5.83123 93.21 6.3437C93.2816 6.43115 93.3245 6.53831 93.333 6.65077C93.3497 7.40392 93.3539 8.15916 93.3518 8.91438C93.3503 8.95437 93.3403 8.99358 93.3223 9.02937C93.3043 9.06516 93.2788 9.0967 93.2475 9.12186C92.2651 9.5721 91.2786 10.012 90.2482 10.4726V7.21512H86.9757V15.2529H90.2336V13.3856H93.3414C93.3414 13.454 93.356 13.5267 93.356 13.5931C93.356 14.3234 93.356 15.0454 93.356 15.784C93.3517 15.9033 93.3093 16.0181 93.235 16.1119C92.8679 16.5725 92.4821 17.0206 92.1087 17.4771C92.0687 17.5331 92.0154 17.5783 91.9535 17.6087C91.8916 17.6391 91.8231 17.6538 91.7541 17.6514C89.6517 17.6514 87.55 17.6514 85.4489 17.6514C85.3839 17.6553 85.319 17.6426 85.2603 17.6147C85.2015 17.5868 85.1509 17.5444 85.1131 17.4916C84.7481 17.0393 84.3644 16.6015 84.0014 16.1471C83.918 16.0391 83.8706 15.9078 83.8659 15.7716C83.8575 12.7452 83.8575 9.71734 83.8659 6.68813C83.872 6.55252 83.9201 6.42209 84.0035 6.31465C84.3477 5.87894 84.7106 5.45569 85.0631 5.02413C85.1167 4.95234 85.1662 4.87752 85.2112 4.80005L91.9585 4.81873Z" fill="white"/>
<path d="M97.7152 4.81873V15.2757H97.9926C99.0354 15.2757 100.06 15.2757 101.094 15.2757C101.162 15.2671 101.232 15.2804 101.292 15.3136C101.353 15.3468 101.401 15.3982 101.43 15.4604C101.807 16.1326 102.199 16.7966 102.587 17.4646C102.621 17.5186 102.65 17.5767 102.692 17.6555C102.596 17.6555 102.525 17.668 102.454 17.668C100.368 17.668 98.3012 17.668 96.2259 17.668C96.1531 17.6729 96.0803 17.6593 96.0142 17.6284C95.9482 17.5976 95.8911 17.5505 95.8484 17.4916C95.4959 17.0497 95.1205 16.6264 94.7722 16.1824C94.6782 16.0636 94.6242 15.9185 94.6178 15.7674C94.6095 12.1172 94.6095 8.46761 94.6178 4.81873H97.7152Z" fill="white"/>
<path d="M60.2219 4.81873C60.2219 4.92662 60.2219 5.02621 60.2219 5.1424V17.6493H57.1267V17.419C57.1267 13.759 57.1267 10.1005 57.1267 6.44329C57.1169 6.36756 57.1344 6.29083 57.176 6.22667C57.2176 6.1625 57.2807 6.11503 57.354 6.09265C58.23 5.70881 59.0998 5.31253 59.9716 4.91832C60.0282 4.8891 60.0826 4.85582 60.1343 4.81873H60.2219Z" fill="white"/>
<path d="M58.735 35.1937C58.735 35.0796 58.758 34.9655 58.758 34.8493C58.758 30.7924 58.758 26.7368 58.758 22.6826V22.3382H59.0291C61.6071 22.3382 64.1837 22.3382 66.7589 22.3382C66.8321 22.3319 66.9057 22.3442 66.9729 22.374C67.04 22.4038 67.0984 22.45 67.1426 22.5084C67.5056 22.9628 67.8914 23.3985 68.2544 23.8528C68.3373 23.961 68.384 24.0924 68.3878 24.2284C68.3962 27.2562 68.3962 30.284 68.3878 33.3119C68.383 33.4387 68.3394 33.561 68.2627 33.6625C67.8914 34.1314 67.5035 34.5879 67.1239 35.0505C67.0927 35.0966 67.0655 35.1452 67.0425 35.1958H63.2382L61.9262 32.9633L61.8866 32.9799V35.1958L58.735 35.1937ZM65.2697 24.7575H61.8782V32.7828H65.2697V24.7575Z" fill="url(#paint14_linear_0_630)"/>
<path d="M71.0993 35.1937C70.7072 34.7124 70.3193 34.2248 69.9188 33.7413C69.7963 33.6079 69.7305 33.4324 69.7352 33.2517C69.7352 30.2557 69.7352 27.2617 69.7352 24.2657C69.7411 24.1057 69.7965 23.9514 69.8938 23.8238C70.2463 23.3715 70.6133 22.9316 70.9909 22.498C71.0749 22.4055 71.1913 22.3483 71.3162 22.3382C73.402 22.3382 75.471 22.3382 77.5484 22.3382C77.6367 22.3309 77.7253 22.346 77.806 22.3824C77.8867 22.4187 77.9567 22.4749 78.0094 22.5457C78.3514 22.9856 78.7248 23.4005 79.0668 23.8404C79.1566 23.9611 79.2088 24.1054 79.217 24.2554C79.2316 24.9442 79.217 25.633 79.217 26.3302C79.217 26.4194 79.217 26.5086 79.2045 26.6061H76.1218V24.7388H72.8513V27.5564H77.805C77.7856 27.6154 77.7619 27.673 77.734 27.7286C77.3336 28.4174 76.9269 29.1021 76.5306 29.8034C76.5041 29.8581 76.4612 29.9033 76.4077 29.9327C76.3543 29.9621 76.293 29.9741 76.2323 29.9673C75.1895 29.9673 74.1654 29.9673 73.1308 29.9673H72.8471V32.7869H76.1113V30.9196H79.217V31.4694C79.217 32.0587 79.217 32.6479 79.217 33.2372C79.2261 33.4189 79.1632 33.5969 79.0418 33.733C78.6247 34.2123 78.2367 34.7041 77.8362 35.1854L71.0993 35.1937Z" fill="url(#paint15_linear_0_630)"/>
<path d="M80.4601 35.1937C80.4601 35.0879 80.4831 34.9862 80.4831 34.8742C80.4831 31.3484 80.4831 27.8212 80.4831 24.2927C80.4764 24.1197 80.536 23.9506 80.6499 23.8196C81.0233 23.3839 81.3778 22.9337 81.7554 22.5021C81.8402 22.4095 81.9572 22.3524 82.0828 22.3424C84.1519 22.3424 86.2188 22.3424 88.2879 22.3424C88.3812 22.3347 88.475 22.351 88.5602 22.3899C88.6453 22.4288 88.7189 22.4889 88.7739 22.5644C89.1201 23.0084 89.4934 23.4358 89.8522 23.8715C89.9153 23.9352 89.9581 24.0161 89.9752 24.1039C89.9752 24.9338 89.9752 25.7637 89.9752 26.6082H86.8821V24.7512H83.5971V27.5709H88.5778C88.5173 27.6829 88.4777 27.7618 88.4318 27.8385C88.0501 28.49 87.6622 29.1374 87.2867 29.793C87.259 29.8512 87.2139 29.8994 87.1575 29.931C87.101 29.9626 87.0362 29.976 86.9718 29.9694C85.9456 29.9694 84.9194 29.9694 83.8953 29.9694H83.6054C83.6054 30.0482 83.5866 30.1125 83.5866 30.1768C83.5866 31.7869 83.5866 33.3962 83.5866 35.0049C83.59 35.0703 83.5977 35.1355 83.6096 35.1999L80.4601 35.1937Z" fill="url(#paint16_linear_0_630)"/>
<path d="M90.9785 35.1937C90.9785 35.1107 90.9785 35.0277 90.9785 34.9468C90.9785 31.2979 90.9785 27.6484 90.9785 23.9981C90.9665 23.9148 90.9849 23.8301 91.0305 23.7592C91.076 23.6884 91.1457 23.6362 91.2267 23.6122C92.1027 23.2304 92.9725 22.832 93.8443 22.442C93.911 22.4109 93.982 22.386 94.0862 22.3445V34.8721C94.0862 34.98 94.0862 35.0796 94.0862 35.1937H90.9785Z" fill="url(#paint17_linear_0_630)"/>
<path d="M39.0475 29.6664C41.2083 28.8136 48.6419 28.8136 50.761 29.6664C46.8993 30.4797 42.9092 30.4797 39.0475 29.6664Z" fill="url(#paint18_linear_0_630)"/>
<path d="M50.7714 26.9525C48.5751 27.77 43.7258 27.8115 41.3439 26.9525C42.733 26.1309 48.984 26.1247 50.7714 26.9525Z" fill="url(#paint19_linear_0_630)"/>
<path d="M41.3355 32.3055C44.4407 31.4954 47.7027 31.489 50.8111 32.2868C49.374 33.15 43.219 33.1583 41.3355 32.3055Z" fill="url(#paint20_linear_0_630)"/>
<path d="M113.784 29.6414C109.92 30.4786 105.92 30.4786 102.056 29.6414C105.92 28.8035 109.92 28.8035 113.784 29.6414Z" fill="url(#paint21_linear_0_630)"/>
<path d="M111.482 32.3283C108.395 33.1665 105.139 33.1665 102.052 32.3283C105.139 31.4911 108.395 31.4911 111.482 32.3283Z" fill="url(#paint22_linear_0_630)"/>
<path d="M111.484 26.9525C108.395 27.7897 105.137 27.7897 102.048 26.9525C105.137 26.1148 108.395 26.1148 111.484 26.9525Z" fill="url(#paint23_linear_0_630)"/>
<defs>
<linearGradient id="paint0_linear_0_630" x1="31.5288" y1="37.8894" x2="30.3153" y2="27.9165" gradientUnits="userSpaceOnUse">
<stop stop-color="#FB3D25"/>
<stop offset="1" stop-color="#6A1D68"/>
</linearGradient>
<linearGradient id="paint1_linear_0_630" x1="20.9657" y1="39.1171" x2="19.7286" y2="28.9459" gradientUnits="userSpaceOnUse">
<stop stop-color="#FB3D25"/>
<stop offset="1" stop-color="#6A1D68"/>
</linearGradient>
<linearGradient id="paint2_linear_0_630" x1="5.41227" y1="15.228" x2="6.78841" y2="24.623" gradientUnits="userSpaceOnUse">
<stop stop-color="#FB3D25"/>
<stop offset="1" stop-color="#6A1D68"/>
</linearGradient>
<linearGradient id="paint3_linear_0_630" x1="6.00374" y1="14.5711" x2="3.62164" y2="17.9565" gradientUnits="userSpaceOnUse">
<stop stop-color="#FBFF25"/>
<stop offset="1" stop-color="#EC1D68"/>
</linearGradient>
<linearGradient id="paint4_linear_0_630" x1="18.0051" y1="2.9324" x2="18.2978" y2="1.99272" gradientUnits="userSpaceOnUse">
<stop stop-color="#FB3D25"/>
<stop offset="1" stop-color="#6A1D68"/>
</linearGradient>
<linearGradient id="paint5_linear_0_630" x1="17.8445" y1="6.45028" x2="18.3545" y2="7.23413" gradientUnits="userSpaceOnUse">
<stop stop-color="#FB3D25"/>
<stop offset="1" stop-color="#6A1D68"/>
</linearGradient>
<linearGradient id="paint6_linear_0_630" x1="18.7984" y1="5.82228" x2="20.1347" y2="5.23675" gradientUnits="userSpaceOnUse">
<stop stop-color="#FB3D25"/>
<stop offset="1" stop-color="#6A1D68"/>
</linearGradient>
<linearGradient id="paint7_linear_0_630" x1="29.3614" y1="4.37735" x2="30.778" y2="4.26402" gradientUnits="userSpaceOnUse">
<stop stop-color="#FB3D25"/>
<stop offset="1" stop-color="#6A1D68"/>
</linearGradient>
<linearGradient id="paint8_linear_0_630" x1="19.025" y1="3.41872" x2="27.6426" y2="40.9822" gradientUnits="userSpaceOnUse">
<stop stop-color="#FB3D25"/>
<stop offset="1" stop-color="#6A1D68"/>
</linearGradient>
<linearGradient id="paint9_linear_0_630" x1="25.5461" y1="-0.495887" x2="31.6516" y2="26.122" gradientUnits="userSpaceOnUse">
<stop stop-color="#FBFF25"/>
<stop offset="1" stop-color="#EC1D68"/>
</linearGradient>
<linearGradient id="paint10_linear_0_630" x1="26.8635" y1="4.38191" x2="30.2964" y2="3.75861" gradientUnits="userSpaceOnUse">
<stop stop-color="#FB3D25"/>
<stop offset="1" stop-color="#6A1D68"/>
</linearGradient>
<linearGradient id="paint11_linear_0_630" x1="5.56261" y1="6.39351" x2="14.1094" y2="43.6406" gradientUnits="userSpaceOnUse">
<stop stop-color="#FB3D25"/>
<stop offset="1" stop-color="#6A1D68"/>
</linearGradient>
<linearGradient id="paint12_linear_0_630" x1="21.5324" y1="2.57824" x2="30.2775" y2="40.7036" gradientUnits="userSpaceOnUse">
<stop stop-color="#FB3D25"/>
<stop offset="1" stop-color="#6A1D68"/>
</linearGradient>
<linearGradient id="paint13_linear_0_630" x1="13.9205" y1="10.1004" x2="17.5659" y2="25.9994" gradientUnits="userSpaceOnUse">
<stop stop-color="#FBFF25"/>
<stop offset="1" stop-color="#EC1D68"/>
</linearGradient>
<linearGradient id="paint14_linear_0_630" x1="49.6998" y1="35.6095" x2="87.1388" y2="58.9831" gradientUnits="userSpaceOnUse">
<stop stop-color="#FB3D25"/>
<stop offset="1" stop-color="#6A1D68"/>
</linearGradient>
<linearGradient id="paint15_linear_0_630" x1="49.6998" y1="35.6095" x2="87.1388" y2="58.9831" gradientUnits="userSpaceOnUse">
<stop stop-color="#FB3D25"/>
<stop offset="1" stop-color="#6A1D68"/>
</linearGradient>
<linearGradient id="paint16_linear_0_630" x1="49.6998" y1="35.6095" x2="87.1388" y2="58.9831" gradientUnits="userSpaceOnUse">
<stop stop-color="#FB3D25"/>
<stop offset="1" stop-color="#6A1D68"/>
</linearGradient>
<linearGradient id="paint17_linear_0_630" x1="49.6998" y1="35.6095" x2="87.1388" y2="58.9831" gradientUnits="userSpaceOnUse">
<stop stop-color="#FB3D25"/>
<stop offset="1" stop-color="#6A1D68"/>
</linearGradient>
<linearGradient id="paint18_linear_0_630" x1="39.0475" y1="33.15" x2="49.1986" y2="37.2567" gradientUnits="userSpaceOnUse">
<stop stop-color="#FB3D25"/>
<stop offset="1" stop-color="#6A1D68"/>
</linearGradient>
<linearGradient id="paint19_linear_0_630" x1="39.0475" y1="33.15" x2="49.1986" y2="37.2567" gradientUnits="userSpaceOnUse">
<stop stop-color="#FB3D25"/>
<stop offset="1" stop-color="#6A1D68"/>
</linearGradient>
<linearGradient id="paint20_linear_0_630" x1="39.0475" y1="33.15" x2="49.1986" y2="37.2567" gradientUnits="userSpaceOnUse">
<stop stop-color="#FB3D25"/>
<stop offset="1" stop-color="#6A1D68"/>
</linearGradient>
<linearGradient id="paint21_linear_0_630" x1="101.972" y1="33.1681" x2="112.141" y2="37.256" gradientUnits="userSpaceOnUse">
<stop stop-color="#6A1D68"/>
<stop offset="1" stop-color="#FB3D25"/>
</linearGradient>
<linearGradient id="paint22_linear_0_630" x1="101.972" y1="33.1681" x2="112.141" y2="37.256" gradientUnits="userSpaceOnUse">
<stop stop-color="#6A1D68"/>
<stop offset="1" stop-color="#FB3D25"/>
</linearGradient>
<linearGradient id="paint23_linear_0_630" x1="101.972" y1="33.1681" x2="112.141" y2="37.256" gradientUnits="userSpaceOnUse">
<stop stop-color="#6A1D68"/>
<stop offset="1" stop-color="#FB3D25"/>
</linearGradient>
</defs>
</svg>
